Coordinates
version=1
nRows=8
nColumns=42
inDegrees=yes

Units are S.I. units (second, meters, Newtons, ...)
If the header above contains a line with 'inDegrees', this indicates whether rotational values are in degrees (yes) or radians (no).

endheader
time	pelvis_tilt	pelvis_list	pelvis_rotation	pelvis_tx	pelvis_ty	pelvis_tz	hip_flexion_r	hip_adduction_r	hip_rotation_r	knee_angle_r	knee_adduction_r	knee_angle_r_beta	ankle_angle_r	subtalar_angle_r	mtp_angle_r	hip_flexion_l	hip_adduction_l	hip_rotation_l	knee_angle_l	knee_adduction_l	knee_angle_l_beta	ankle_angle_l	subtalar_angle_l	mtp_angle_l	lumbar_extension	lumbar_bending	lumbar_rotation	arm_flex_r	arm_add_r	arm_rot_r	elbow_flex_r	pro_sup_r	wrist_flex_r	wrist_dev_r	arm_flex_l	arm_add_l	arm_rot_l	elbow_flex_l	pro_sup_l	wrist_flex_l	wrist_dev_l
      1.11000000	      2.97405951	     -6.36891807	      3.47012084	      0.54262414	      0.97288250	     -0.22911484	      8.22045416	     10.01904220	     -9.09433461	     15.75631411	     -2.44779034	      0.27499956	      3.70599035	     -3.62144108	     -7.54634966	      0.65051473	     -9.40551655	    -12.26872979	     55.77125888	     -6.99038853	      0.97339210	     -9.20833819	    -18.15135005	     -7.54634966	    -14.70337628	      9.91376646	      3.17703533	     -6.41995377	     -9.10595448	    -11.15985685	     26.72809420	     90.00000001	      0.00000000	      0.00000000	      7.71508078	     -6.81957187	      5.34433120	     43.97932890	     90.00000001	      0.00000000	      0.00000000
      1.12000000	      2.96484901	     -5.96855138	      3.52293936	      0.55644416	      0.97506241	     -0.22851491	      6.78844586	      9.68320583	     -8.95379108	     14.84124042	     -2.33150230	      0.25902851	      4.11984862	     -3.10625723	     -7.54571680	      2.65919382	     -8.98971615	    -12.67171443	     56.80898986	     -7.58729706	      0.99150392	     -7.90170334	    -18.20061150	     -7.54571680	    -14.80052099	      9.43813114	      3.48858725	     -5.93461235	     -9.09133436	    -10.95353575	     27.08219023	     90.00000001	      0.00000000	      0.00000000	      7.26293791	     -6.90602675	      5.31197412	     43.83549410	     90.00000001	      0.00000000	      0.00000000
      1.13000000	      2.81076625	     -5.56352046	      3.55635009	      0.57029855	      0.97685693	     -0.22789041	      5.44974879	      9.31971873	     -8.70159839	     13.79738671	     -2.14279697	      0.24080983	      4.59451117	     -2.56928128	     -7.54497841	      4.76651050	     -8.53849225	    -12.86154680	     57.52759163	     -7.93609832	      1.00404588	     -6.61914523	    -17.98677135	     -7.54497841	    -14.71050857	      8.93535087	      3.79608044	     -5.49168087	     -9.09838747	    -10.61958592	     27.45903926	     90.00000001	      0.00000000	      0.00000000	      6.74402870	     -7.02441545	      5.26468985	     43.68980981	     90.00000001	      0.00000000	      0.00000000
      1.14000000	      2.64911793	     -5.13158534	      3.55817882	      0.58388833	      0.97840480	     -0.22725734	      4.21637338	      8.93982142	     -8.50293403	     12.90195028	     -2.02577449	      0.22518151	      4.98460885	     -2.10892642	     -7.54434425	      6.82555183	     -7.99798401	    -12.84714484	     57.93369875	     -8.07508420	      1.01113379	     -5.42919597	    -17.72318575	     -7.54434425	    -14.65583337	      8.39766411	      4.11312434	     -5.00728482	     -9.12269559	    -10.28481102	     27.90731887	     90.00000001	      0.00000000	      0.00000000	      6.23782777	     -7.17008322	      5.21527696	     43.53018091	     90.00000001	      0.00000000	      0.00000000
      1.15000000	      2.43352384	     -4.77500852	      3.58028869	      0.59753592	      0.97960541	     -0.22664710	      2.95139499	      8.61945426	     -7.97042702	     11.83705396	     -1.76731389	      0.20659557	      5.23832708	     -2.16693472	     -7.54219831	      8.85646831	     -7.53472691	    -12.37248292	     58.04731292	     -7.74941895	      1.01311673	     -4.23287127	    -17.10872806	     -7.54219831	    -14.51653358	      7.93622418	      4.35964700	     -4.59157932	     -9.31335290	     -9.09737174	     28.42214007	     90.00000001	      0.00000000	      0.00000000	      5.64153570	     -7.31649318	      5.02484339	     43.38560302	     90.00000001	      0.00000000	      0.00000000
      1.16000000	      2.16494040	     -4.32157275	      3.51855539	      0.61097017	      0.98045354	     -0.22600757	      1.90839671	      8.21650947	     -7.68742044	     11.05196400	     -1.69617189	      0.19289316	      5.64329356	     -1.73777947	     -7.54151442	     10.85881478	     -6.88189318	    -12.02177272	     57.78797267	     -7.50248405	      1.00859039	     -3.32444838	    -16.53195934	     -7.54151442	    -14.36538740	      7.35908756	      4.67533623	     -4.08395808	     -9.35052171	     -8.86672405	     29.02102728	     90.00000001	      0.00000000	      0.00000000	      5.09073597	     -7.50392455	      4.97193649	     43.17790688	     90.00000001	      0.00000000	      0.00000000
      1.17000000	      1.91372994	     -3.91578167	      3.41448587	      0.62441299	      0.98099276	     -0.22528844	      0.90321054	      7.84300241	     -7.42982593	     10.36764771	     -1.58389920	      0.18094959	      6.07455143	     -1.40765774	     -7.54084073	     12.73551659	     -6.29508441	    -11.45592840	     57.23598091	     -6.97817417	      0.99895632	     -2.49962926	    -15.75455168	     -7.54084073	    -14.23276354	      6.81425794	      5.02818294	     -3.58882548	     -9.43424640	     -8.45580180	     29.63760600	     90.00000001	      0.00000000	      0.00000000	      4.51290115	     -7.70280397	      4.85951414	     42.95029641	     90.00000001	      0.00000000	      0.00000000
      1.18000000	      1.81401279	     -3.55414572	      3.34100776	      0.63795771	      0.98142124	     -0.22462895	     -0.27873555	      7.50239383	     -7.05392498	      9.67088693	     -1.39169071	      0.16878882	      6.46679141	     -1.39818264	     -7.53964306	     14.30968497	     -5.76737264	    -10.63150238	     56.33011706	     -6.18879801	      0.98314601	     -1.59730817	    -14.78139441	     -7.53964306	    -14.25952168	      6.32738009	      5.31302470	     -3.08710471	     -9.63914567	     -7.49138647	     30.32132480	     90.00000001	      0.00000000	      0.00000000	      3.93002218	     -7.88554107	      4.59084153	     42.70391448	     90.00000001	      0.00000000	      0.00000000
